<?xml version="1.0" standalone="no"?><!DOCTYPE svg PUBLIC "-//W3C//DTD SVG 1.1//EN" "http://www.w3.org/Graphics/SVG/1.1/DTD/svg11.dtd"><svg t="1760079514975" class="icon" viewBox="0 0 1024 1024" version="1.1" xmlns="http://www.w3.org/2000/svg" p-id="1614" xmlns:xlink="http://www.w3.org/1999/xlink" width="48" height="48"><path d="M512 0a424.8 424.8 0 0 0-298.24 724.16L512 1024l298.24-299.84A424.8 424.8 0 0 0 512 0z" fill="#42BE00" p-id="1615"></path><path d="M581.28 274.72h-138.56A34.4 34.4 0 0 1 408.48 240v-8a34.56 34.56 0 0 1 34.24-34.24h138.56a34.56 34.56 0 0 1 34.24 34.24v8a34.4 34.4 0 0 1-34.24 34.72zM374.4 442.4v10.24a16 16 0 0 1-6.88 16 16 16 0 0 1-16 6.88H300.8v-12h44.48a9.44 9.44 0 0 0 6.88-3.36 14.4 14.4 0 0 0 3.36-6.88v-10.24a12.64 12.64 0 0 0-13.6-13.76l-20.64-1.76a65.28 65.28 0 0 1-17.28-5.76 16 16 0 0 1-6.72-8.48 24.8 24.8 0 0 1-1.76-12v-10.24a16 16 0 0 1 6.88-16 18.56 18.56 0 0 1 16-6.88h51.36v12H326.4a8.8 8.8 0 0 0-6.4 3.84 12.96 12.96 0 0 0-3.52 6.88v10.24a13.92 13.92 0 0 0 3.52 10.24 16 16 0 0 0 11.84 3.52L352 416a27.04 27.04 0 0 1 17.12 6.88 27.84 27.84 0 0 1 5.28 19.52z m83.68-73.6v12h-27.36v94.08h-20.48v-96h-27.36v-12h75.2z m83.84 106.08l-12-32h-40.96l-12 32h-18.88l39.36-107.84h25.6l39.36 107.84z m-48-44.48h32l-16-44.48z m133.28 44.48l-23.68-44.48h-18.88v44.48h-18.72V380.8l18.72 1.76v37.6h27.36a12.96 12.96 0 0 0 8.64-3.52 10.08 10.08 0 0 0 5.12-10.24v-13.6a12.96 12.96 0 0 0-3.52-8.64 9.44 9.44 0 0 0-8.48-3.36h-46.24v-12h54.72a23.52 23.52 0 0 1 24 24v13.6a20.96 20.96 0 0 1-5.12 16 23.36 23.36 0 0 1-16 8.64l23.84 44.48z m100.96-106.08v12h-27.2v94.08h-20.48v-96h-27.36v-12h75.2zM412 584.32v10.24a23.68 23.68 0 0 1-22.24 22.24h-51.36v-12h44.48a9.44 9.44 0 0 0 6.88-3.36 12.64 12.64 0 0 0 3.36-6.88v-10.24a12.64 12.64 0 0 0-13.6-13.76l-20.64-1.6a66.4 66.4 0 0 1-16.96-5.28 16 16 0 0 1-6.88-8.48v-22.24a16 16 0 0 1 6.88-16 18.56 18.56 0 0 1 16-6.88h49.6v12h-43.36a8.96 8.96 0 0 0-6.88 3.36 12.96 12.96 0 0 0-3.52 6.88V544a13.92 13.92 0 0 0 3.52 10.24 16 16 0 0 0 12 3.52l20.48 1.6a26.72 26.72 0 0 1 17.12 6.88 32 32 0 0 1 5.12 18.08z m84-73.6v12h-27.68v96H448v-96h-27.52v-12z m97.6 29.12v48a29.44 29.44 0 0 1-29.12 29.12h-31.04a32 32 0 0 1-20.64-8.96 28 28 0 0 1-8.48-20.48v-48a31.04 31.04 0 0 1 8.48-20.48 28.48 28.48 0 0 1 20.64-8.64h30.72a28.48 28.48 0 0 1 20.48 8.64 22.88 22.88 0 0 1 8.64 20.8z m-18.88 0a17.44 17.44 0 0 0-17.12-17.12h-17.44a17.76 17.76 0 0 0-17.12 17.12v48a17.76 17.76 0 0 0 17.12 17.12h17.12a17.44 17.44 0 0 0 17.12-17.12z m87.2-29.12a23.52 23.52 0 0 1 24 24v13.6a19.84 19.84 0 0 1-6.88 17.12 21.92 21.92 0 0 1-17.12 6.88h-34.56v44.48H608v-94.08l18.72 1.76v37.6h27.36a12.96 12.96 0 0 0 8.64-3.52c3.36-3.36 3.36-5.12 3.36-10.24v-13.6a12.96 12.96 0 0 0-3.36-8.64 9.6 9.6 0 0 0-8.64-3.36H608v-12z" fill="#FFFFFF" p-id="1616"></path><path d="M512 752a344.16 344.16 0 1 1 344.16-343.84A344.64 344.64 0 0 1 512 752z m0-652.8a308.96 308.96 0 1 0 308.96 308.96A309.28 309.28 0 0 0 512 99.2z" fill="#FFFFFF" p-id="1617"></path></svg>